<?xml version="1.0" encoding="UTF-8"?>
<svg width="24px" height="24px" viewBox="0 0 24 24" version="1.1" xmlns="http://www.w3.org/2000/svg" xmlns:xlink="http://www.w3.org/1999/xlink">
    <!-- Generator: Sketch 52.1 (67048) - http://www.bohemiancoding.com/sketch -->
    <title>Icons/ic_documentos</title>
    <desc>Created with Sketch.</desc>
    <g id="Icons/ic_documentos" stroke="none" stroke-width="1" fill="none" fill-rule="evenodd">
        <g id="Group-8" transform="translate(2.900102, 0.000000)">
            <path d="M0.627248291,0.315068482 C0.443905372,0.315068482 0.314931513,0.471891735 0.314931513,0.823250541 L0.314931513,23.5412262 C0.314931513,23.5267189 0.478576999,23.6545959 0.627248291,23.6545959 L17.7788149,23.6545959 C17.9254392,23.6545959 18.0887347,23.5266543 18.0887347,23.5412262 L18.0887347,5.55517768 C18.0887347,5.35865402 18.0785036,5.32002148 18.0724407,5.31392709 L13.0922654,0.333409367 C13.0804982,0.32164224 13.0645591,0.315068482 13.0475726,0.315068482 L0.627248291,0.315068482 Z" id="Fill-1" stroke="#EBEBEB" stroke-width="0.629999995" fill="#FFFFFF"></path>
            <polygon id="Fill-4" fill="#EAEAEA" points="13.2690852 0.0647519663 13.2690852 5.1370464 18.3389827 5.1370464"></polygon>
            <path d="M5.13725185,5.56325884 L2.56874577,5.56325884 C2.33213229,5.56325884 2.14003365,5.37321472 2.14003365,5.13728609 C2.14003365,4.90067261 2.33213229,4.70857397 2.56874577,4.70857397 L5.13725185,4.70857397 C5.37318048,4.70857397 5.56322459,4.90067261 5.56322459,5.13728609 C5.56322459,5.37321472 5.37318048,5.56325884 5.13725185,5.56325884" id="Fill-6" fill="#00A6FF"></path>
            <path d="M6.42034065,7.703224 L2.56843759,7.703224 C2.33216654,7.703224 2.14006789,7.51317989 2.14006789,7.27725126 C2.14006789,7.0409802 2.33216654,6.84888156 2.56843759,6.84888156 L6.42034065,6.84888156 C6.65626929,6.84888156 6.84871035,7.0409802 6.84871035,7.27725126 C6.84871035,7.51317989 6.65626929,7.703224 6.42034065,7.703224" id="Fill-8" fill="#00A6FF"></path>
            <path d="M8.13176491,7.703224 C8.02116266,7.703224 7.91021799,7.6576819 7.82906402,7.58029457 C7.75133427,7.49879818 7.70339521,7.38819593 7.70339521,7.27725126 C7.70339521,7.16459448 7.75133427,7.05399223 7.82906402,6.97181099 C7.98794775,6.81292727 8.27832145,6.81292727 8.43720518,6.97181099 C8.51219555,7.05399223 8.56013461,7.16459448 8.56013461,7.27725126 C8.56013461,7.38819593 8.51219555,7.49879818 8.43720518,7.58029457 C8.35536636,7.6576819 8.24270958,7.703224 8.13176491,7.703224" id="Fill-10" fill="#00A6FF"></path>
            <path d="M13.2690852,7.703224 L9.84349735,7.703224 C9.60756872,7.703224 9.41752461,7.51317989 9.41752461,7.27725126 C9.41752461,7.0409802 9.60756872,6.84888156 9.84349735,6.84888156 L13.2690852,6.84888156 C13.5050139,6.84888156 13.6974549,7.0409802 13.6974549,7.27725126 C13.6974549,7.51317989 13.5050139,7.703224 13.2690852,7.703224" id="Fill-12" fill="#00A6FF"></path>
            <path d="M2.56857456,14.1234619 C2.45797231,14.1234619 2.34497311,14.0779198 2.2631343,14.0005325 C2.18814392,13.9190361 2.14020486,13.8084339 2.14020486,13.6974892 C2.14020486,13.5848324 2.18814392,13.4742302 2.2631343,13.3920489 C2.42201802,13.2331652 2.71239173,13.2331652 2.87161787,13.3920489 C2.9490052,13.4742302 2.99694426,13.5803809 2.99694426,13.6974892 C2.99694426,13.8084339 2.9490052,13.9190361 2.87161787,14.0005325 C2.79012148,14.0779198 2.67951923,14.1234619 2.56857456,14.1234619" id="Fill-14" fill="#00A6FF"></path>
            <path d="M7.703224,14.1234619 L4.28003306,14.1234619 C4.04410443,14.1234619 3.85166336,13.9334178 3.85166336,13.6974892 C3.85166336,13.4612181 4.04410443,13.2691195 4.28003306,13.2691195 L7.703224,13.2691195 C7.93949506,13.2691195 8.1315937,13.4612181 8.1315937,13.6974892 C8.1315937,13.9334178 7.93949506,14.1234619 7.703224,14.1234619" id="Fill-16" fill="#00A6FF"></path>
            <path d="M15.8377625,7.703224 L14.9806807,7.703224 C14.7447521,7.703224 14.5519686,7.51317989 14.5519686,7.27725126 C14.5519686,7.0409802 14.7447521,6.84888156 14.9806807,6.84888156 L15.8377625,6.84888156 C16.0736912,6.84888156 16.2637353,7.0409802 16.2637353,7.27725126 C16.2637353,7.51317989 16.0736912,7.703224 15.8377625,7.703224" id="Fill-18" fill="#00A6FF"></path>
            <path d="M11.9833256,9.84336038 L2.56843759,9.84336038 C2.33216654,9.84336038 2.14006789,9.65331627 2.14006789,9.41738764 C2.14006789,9.18077416 2.33216654,8.98901794 2.56843759,8.98901794 L11.9833256,8.98901794 C12.219939,8.98901794 12.4120377,9.18077416 12.4120377,9.41738764 C12.4120377,9.65331627 12.219939,9.84336038 11.9833256,9.84336038" id="Fill-20" fill="#00A6FF"></path>
            <path d="M15.8377625,9.84336038 L13.2692565,9.84336038 C13.032643,9.84336038 12.8405443,9.65331627 12.8405443,9.41738764 C12.8405443,9.18077416 13.032643,8.98901794 13.2692565,8.98901794 L15.8377625,8.98901794 C16.0736912,8.98901794 16.2637353,9.18077416 16.2637353,9.41738764 C16.2637353,9.65331627 16.0736912,9.84336038 15.8377625,9.84336038" id="Fill-22" fill="#00A6FF"></path>
            <path d="M4.28020427,11.9834968 L2.56843759,11.9834968 C2.33216654,11.9834968 2.14006789,11.7934527 2.14006789,11.557524 C2.14006789,11.3209105 2.33216654,11.1288119 2.56843759,11.1288119 L4.28020427,11.1288119 C4.51613291,11.1288119 4.70857397,11.3209105 4.70857397,11.557524 C4.70857397,11.7934527 4.51613291,11.9834968 4.28020427,11.9834968" id="Fill-24" fill="#00A6FF"></path>
            <path d="M10.2719013,11.9834968 L5.99162853,11.9834968 C5.7556999,11.9834968 5.56325884,11.7934527 5.56325884,11.557524 C5.56325884,11.3209105 5.7556999,11.1288119 5.99162853,11.1288119 L10.2719013,11.1288119 C10.5081723,11.1288119 10.700271,11.3209105 10.700271,11.557524 C10.700271,11.7934527 10.5081723,11.9834968 10.2719013,11.9834968" id="Fill-26" fill="#00A6FF"></path>
            <path d="M15.8377625,11.9834968 L11.9834625,11.9834968 C11.7475339,11.9834968 11.5574898,11.7934527 11.5574898,11.557524 C11.5574898,11.3209105 11.7475339,11.1288119 11.9834625,11.1288119 L15.8377625,11.1288119 C16.0736912,11.1288119 16.2637353,11.3209105 16.2637353,11.557524 C16.2637353,11.7934527 16.0736912,11.9834968 15.8377625,11.9834968" id="Fill-28" fill="#00A6FF"></path>
            <polygon id="Clip-31" points="9.28136205e-21 16.692105 9.28136205e-21 23.9695274 18.4037004 23.9695274 18.4037004 16.692105 0 16.692105"></polygon>
            <path d="M17.7787806,23.9695959 L0.627214049,23.9695959 C0.279655901,23.9695959 -0.000102726546,23.6891525 -0.000102726546,23.3422792 L-0.000102726546,16.692105 L18.4037004,16.692105 L18.4037004,23.3422792 C18.4037004,23.6891525 18.1239418,23.9695959 17.7787806,23.9695959" id="Fill-30" fill="#00A6FF"></path>
            <path d="M5.19340903,22.1702035 C5.6700602,22.1702035 6.01248202,22.0171409 6.22375629,21.7144401 C6.4326336,21.4093422 6.5394692,20.9679605 6.5394692,20.3913221 C6.5394692,20.2115507 6.51652694,20.0338338 6.47475148,19.8585138 C6.43092149,19.6828514 6.34908267,19.5239677 6.22615324,19.382205 C6.10253896,19.2397576 5.93543711,19.1247038 5.72621738,19.0373863 C5.51562796,18.9493839 5.2416905,18.9055539 4.90714438,18.9055539 L4.49726547,18.9055539 L4.49726547,22.1702035 L5.19340903,22.1702035 Z M7.27738823,20.4084432 C7.27738823,20.7638771 7.23732487,21.066578 7.1623345,21.3196277 C7.08460474,21.5699381 6.98838421,21.7812123 6.87161837,21.9503687 C6.75451011,22.1198675 6.62302013,22.2537544 6.47646359,22.3516871 C6.33024947,22.4499621 6.19019895,22.5232404 6.05220295,22.5715219 C5.91660391,22.6191185 5.7909351,22.6506213 5.67827832,22.665003 C5.56527912,22.6780151 5.4817282,22.6838362 5.42796797,22.6838362 L3.79530073,22.6838362 L3.79530073,18.3727455 L5.09342186,18.3727455 C5.45673141,18.3727455 5.77449886,18.4289027 6.05049084,18.5439564 C6.32408588,18.6590102 6.55419334,18.8134424 6.73601933,19.0038289 C6.91579078,19.193873 7.05173225,19.4133654 7.14144676,19.6558001 C7.2315037,19.9002893 7.27738823,20.1512844 7.27738823,20.4084432 L7.27738823,20.4084432 Z" id="Fill-33" fill="#FFFFFF"></path>
            <path d="M9.73101178,22.1407895 C9.87482895,22.1407895 10.0128249,22.1133957 10.1446573,22.0572385 C10.2740928,22.0007389 10.3912011,21.9065729 10.4956397,21.779192 C10.5983663,21.6497566 10.6795202,21.4799154 10.7377319,21.2713805 C10.7966285,21.0621607 10.8277889,20.8097959 10.8318979,20.5084646 C10.8277889,20.215694 10.7966285,19.9670958 10.7401289,19.7626699 C10.6839717,19.5579017 10.606242,19.3880605 10.5062548,19.2565705 C10.4079797,19.123026 10.292926,19.0285175 10.1675996,18.9703058 C10.0402187,18.9096972 9.90633175,18.8826458 9.76628123,18.8826458 C9.62177922,18.8826458 9.48446807,18.9076426 9.35229325,18.9637998 C9.2228578,19.0185873 9.10609196,19.1103564 9.00336541,19.2421888 C8.89892676,19.3716242 8.81708794,19.5407806 8.75887623,19.7476034 C8.70271906,19.9547686 8.6688193,20.2078183 8.66676476,20.5084646 C8.6688193,20.8012353 8.70066452,21.0498335 8.7568217,21.2563139 C8.8133213,21.4634791 8.89036621,21.6333203 8.99103823,21.7627558 C9.0910254,21.8942458 9.2040246,21.9904663 9.32969341,22.051075 C9.45707433,22.1113412 9.59061884,22.1407895 9.73101178,22.1407895 M11.5444777,20.5084646 C11.5444777,20.8704045 11.5006478,21.1895417 11.4088787,21.4679306 C11.3167672,21.7439226 11.1893863,21.9757422 11.0284481,22.1575681 C10.8657977,22.3414487 10.6774657,22.4794446 10.4600278,22.5732682 C10.2429324,22.6674342 10.0066613,22.7133188 9.74984498,22.7133188 C9.49234377,22.7133188 9.25436061,22.6674342 9.03897728,22.5732682 C8.82153943,22.4794446 8.63354985,22.3414487 8.47055706,22.1575681 C8.30961881,21.9733452 8.18223789,21.7439226 8.09012642,21.4679306 C7.99801495,21.1895417 7.95213042,20.8704045 7.95213042,20.5084646 C7.95213042,20.1444703 7.99801495,19.8273876 8.09012642,19.5513957 C8.18223789,19.2754037 8.30961881,19.0480356 8.47055706,18.8638126 C8.63354985,18.6799321 8.82153943,18.5415937 9.03897728,18.446058 C9.25436061,18.3498375 9.49234377,18.301556 9.74984498,18.301556 C10.0066613,18.301556 10.2429324,18.3498375 10.4600278,18.446058 C10.6774657,18.5415937 10.8657977,18.6799321 11.0284481,18.8638126 C11.1893863,19.0480356 11.3167672,19.2774582 11.4088787,19.5513957 C11.4985932,19.8273876 11.5444777,20.1444703 11.5444777,20.5084646" id="Fill-35" fill="#FFFFFF"></path>
            <path d="M15.4552089,22.2451254 C15.2942706,22.4019546 15.1124446,22.5190629 14.9093885,22.5961078 C14.7066748,22.675892 14.4895793,22.713216 14.2557052,22.713216 C13.998204,22.713216 13.7602209,22.6673315 13.5444951,22.5731655 C13.3273997,22.4796843 13.1394101,22.3413459 12.9764173,22.1574654 C12.8154791,21.9735849 12.6880981,21.7438199 12.5959867,21.4678279 C12.5038752,21.1894389 12.4579907,20.8703018 12.4579907,20.5083619 C12.4579907,20.1447099 12.5038752,19.8272849 12.5959867,19.5512929 C12.6880981,19.2753009 12.8154791,19.0479329 12.9764173,18.8637099 C13.1394101,18.6798294 13.3273997,18.5418334 13.5468921,18.4459553 C13.766042,18.3497348 14.0026555,18.3014533 14.2557052,18.3014533 C14.4895793,18.3014533 14.7066748,18.3411742 14.9093885,18.4185616 C15.1124446,18.4980034 15.2942706,18.6151117 15.4552089,18.7698863 L14.968285,19.2023651 C14.8720645,19.0897083 14.7631744,19.0078695 14.6440116,18.9578759 C14.5248488,18.9075399 14.4015769,18.8804886 14.2721415,18.8804886 C14.1279819,18.8804886 13.9896435,18.9075399 13.860208,18.9616426 C13.7287181,19.0184846 13.6116098,19.1105961 13.5092257,19.2400315 C13.4051294,19.3715215 13.3229482,19.5406779 13.266791,19.7478431 C13.2085793,19.9546658 13.1770765,20.2077156 13.172625,20.5083619 C13.1770765,20.8011326 13.2065248,21.0500732 13.262682,21.2565536 C13.319524,21.4633764 13.3962265,21.6332176 13.4968985,21.7626531 C13.5968857,21.894143 13.7098849,21.988309 13.8372658,22.0489177 C13.9629346,22.1112385 14.0968215,22.1406867 14.2361872,22.1406867 C14.3786347,22.1406867 14.5104671,22.1156899 14.6316844,22.0632994 C14.7549563,22.0136482 14.867613,21.931467 14.968285,21.8188102 L15.4552089,22.2451254 Z" id="Fill-37" fill="#FFFFFF"></path>
        </g>
    </g>
</svg>