<?xml version="1.0" encoding="UTF-8"?>
<svg width="24px" height="24px" viewBox="0 0 24 24" version="1.1" xmlns="http://www.w3.org/2000/svg" xmlns:xlink="http://www.w3.org/1999/xlink">
    <!-- Generator: Sketch 52.1 (67048) - http://www.bohemiancoding.com/sketch -->
    <title>Icons/ic_img</title>
    <desc>Created with Sketch.</desc>
    <g id="Icons/ic_img" stroke="none" stroke-width="1" fill="none" fill-rule="evenodd">
        <g id="Group-7" transform="translate(3.384934, 0.010421)">
            <path d="M1,1 L1,22.9115236 L17.3592679,22.9115236 L17.3592679,5.60162244 L12.7582781,1 L1,1 Z" id="Fill-1" stroke="#EBEBEB" stroke-width="2" fill="#FFFFFF"></path>
            <polygon id="Fill-4" fill="#EAEAEA" points="13.2369413 0.0645611138 13.2369413 5.1249227 18.2945701 5.1249227"></polygon>
            <path d="M7.25970938,6.16087239 C7.25970938,7.23894051 6.38591398,8.11205272 5.30784586,8.11205272 C4.23011933,8.11205272 3.35666553,7.23894051 3.35666553,6.16087239 C3.35666553,5.08485382 4.23011933,4.21174162 5.30784586,4.21174162 C6.38591398,4.21174162 7.25970938,5.08485382 7.25970938,6.16087239" id="Fill-6" fill="#FFB90B"></path>
            <polygon id="Clip-9" points="18.3592679 16.6518484 18.3592679 7.89954759 3.41593197e-05 7.89954759 3.41593197e-05 16.6518484"></polygon>
            <polygon id="Fill-8" fill="#EAEAEA" points="3.41593197e-05 16.6518484 18.359302 16.6518484 18.359302 11.9546004 14.0893871 7.89954759 9.60734277 12.8092666 7.26572142 10.4679868"></polygon>
            <path d="M17.7358603,23.9115236 L0.62545714,23.9115236 C0.27908164,23.9115236 0,23.6317588 0,23.2860665 L0,16.6519851 L18.3592679,16.6519851 L18.3592679,23.2860665 C18.3592679,23.6317588 18.0798446,23.9115236 17.7358603,23.9115236" id="Fill-11" fill="#FFB90B"></path>
        </g>
        <path d="M7.02484683,18.259175 L7.79955808,18.259175 L7.79955808,22.6123143 L7.02484683,22.6123143 L7.02484683,18.259175 Z M8.70953636,18.259175 L9.89004873,18.259175 L11.0521156,21.3088319 L12.2264795,18.259175 L13.3946948,18.259175 L13.3946948,22.6123143 L12.6568746,22.6123143 L12.6568746,18.9969952 L12.6445776,18.9969952 L11.3226497,22.6123143 L10.7815815,22.6123143 L9.4596536,18.9969952 L9.44735659,18.9969952 L9.44735659,22.6123143 L8.70953636,22.6123143 L8.70953636,18.259175 Z M18.1905263,22.2925922 C17.6535545,22.5795238 17.0530568,22.7229874 16.3890153,22.7229874 C16.0528955,22.7229874 15.7444487,22.6686761 15.4636657,22.5600521 C15.1828827,22.451428 14.9410441,22.297717 14.7381425,22.0989144 C14.5352409,21.9001119 14.3764062,21.6613474 14.2616336,21.382614 C14.146861,21.1038805 14.0894756,20.794409 14.0894756,20.4541902 C14.0894756,20.1057733 14.146861,19.7891286 14.2616336,19.5042466 C14.3764062,19.2193646 14.5352409,18.9765012 14.7381425,18.7756491 C14.9410441,18.5747971 15.1828827,18.4200613 15.4636657,18.3114372 C15.7444487,18.2028132 16.0528955,18.1485019 16.3890153,18.1485019 C16.721036,18.1485019 17.032557,18.1884668 17.3235876,18.2683977 C17.6146181,18.3483286 17.8749021,18.4907675 18.1044473,18.6957186 L17.5326366,19.2736778 C17.3932699,19.1384101 17.2241878,19.0338866 17.0253852,18.9601042 C16.8265827,18.8863218 16.616511,18.8494312 16.3951638,18.8494312 C16.1697176,18.8494312 15.9657943,18.889396 15.7833878,18.9693269 C15.6009814,19.0492579 15.4441961,19.1599298 15.3130274,19.301346 C15.1818587,19.4427623 15.0804095,19.6077455 15.0086766,19.7963005 C14.9369437,19.9848555 14.9010778,20.187754 14.9010778,20.4050021 C14.9010778,20.6386464 14.9369437,20.8538418 15.0086766,21.0505948 C15.0804095,21.2473479 15.1818587,21.4174547 15.3130274,21.5609205 C15.4441961,21.7043863 15.6009814,21.8171077 15.7833878,21.8990881 C15.9657943,21.9810685 16.1697176,22.0220582 16.3951638,22.0220582 C16.5919168,22.0220582 16.7773948,22.0036128 16.9516032,21.9667216 C17.1258116,21.9298304 17.2805474,21.872445 17.4158151,21.7945636 L17.4158151,20.7677638 L16.5242823,20.7677638 L16.5242823,20.0668345 L18.1905263,20.0668345 L18.1905263,22.2925922 Z" id="IMG" fill="#FFFFFF"></path>
    </g>
</svg>