<?xml version="1.0" encoding="UTF-8"?>
<svg width="24px" height="24px" viewBox="0 0 24 24" version="1.1" xmlns="http://www.w3.org/2000/svg" xmlns:xlink="http://www.w3.org/1999/xlink">
    <!-- Generator: Sketch 52.1 (67048) - http://www.bohemiancoding.com/sketch -->
    <title>Icons/ic_ppt</title>
    <desc>Created with Sketch.</desc>
    <g id="Icons/ic_ppt" stroke="none" stroke-width="1" fill="none" fill-rule="evenodd">
        <path d="M7.02484683,18.259175 L7.79955808,18.259175 L7.79955808,22.6123143 L7.02484683,22.6123143 L7.02484683,18.259175 Z M8.70953636,18.259175 L9.89004873,18.259175 L11.0521156,21.3088319 L12.2264795,18.259175 L13.3946948,18.259175 L13.3946948,22.6123143 L12.6568746,22.6123143 L12.6568746,18.9969952 L12.6445776,18.9969952 L11.3226497,22.6123143 L10.7815815,22.6123143 L9.4596536,18.9969952 L9.44735659,18.9969952 L9.44735659,22.6123143 L8.70953636,22.6123143 L8.70953636,18.259175 Z M18.1905263,22.2925922 C17.6535545,22.5795238 17.0530568,22.7229874 16.3890153,22.7229874 C16.0528955,22.7229874 15.7444487,22.6686761 15.4636657,22.5600521 C15.1828827,22.451428 14.9410441,22.297717 14.7381425,22.0989144 C14.5352409,21.9001119 14.3764062,21.6613474 14.2616336,21.382614 C14.146861,21.1038805 14.0894756,20.794409 14.0894756,20.4541902 C14.0894756,20.1057733 14.146861,19.7891286 14.2616336,19.5042466 C14.3764062,19.2193646 14.5352409,18.9765012 14.7381425,18.7756491 C14.9410441,18.5747971 15.1828827,18.4200613 15.4636657,18.3114372 C15.7444487,18.2028132 16.0528955,18.1485019 16.3890153,18.1485019 C16.721036,18.1485019 17.032557,18.1884668 17.3235876,18.2683977 C17.6146181,18.3483286 17.8749021,18.4907675 18.1044473,18.6957186 L17.5326366,19.2736778 C17.3932699,19.1384101 17.2241878,19.0338866 17.0253852,18.9601042 C16.8265827,18.8863218 16.616511,18.8494312 16.3951638,18.8494312 C16.1697176,18.8494312 15.9657943,18.889396 15.7833878,18.9693269 C15.6009814,19.0492579 15.4441961,19.1599298 15.3130274,19.301346 C15.1818587,19.4427623 15.0804095,19.6077455 15.0086766,19.7963005 C14.9369437,19.9848555 14.9010778,20.187754 14.9010778,20.4050021 C14.9010778,20.6386464 14.9369437,20.8538418 15.0086766,21.0505948 C15.0804095,21.2473479 15.1818587,21.4174547 15.3130274,21.5609205 C15.4441961,21.7043863 15.6009814,21.8171077 15.7833878,21.8990881 C15.9657943,21.9810685 16.1697176,22.0220582 16.3951638,22.0220582 C16.5919168,22.0220582 16.7773948,22.0036128 16.9516032,21.9667216 C17.1258116,21.9298304 17.2805474,21.872445 17.4158151,21.7945636 L17.4158151,20.7677638 L16.5242823,20.7677638 L16.5242823,20.0668345 L18.1905263,20.0668345 L18.1905263,22.2925922 Z" id="IMG" fill="#FFFFFF"></path>
        <g id="Group-9" transform="translate(3.107687, 0.000000)">
            <path d="M12.9539777,1.00006868 L0.99989602,1.00006868 L0.99989602,23.0364543 L17.6282335,23.0364543 L17.6282335,5.63118679 L12.9539777,1.00006868 Z M12.7740309,0.821782614 L12.7719119,0.819683127 C12.7726168,0.820384866 12.7733231,0.821084696 12.7740309,0.821782614 Z" id="Fill-1" stroke="#EBEBEB" stroke-width="2" fill="#FFFFFF"></path>
            <polygon id="Clip-7" points="18.6281988 16.6405747 0.000207959708 16.6405747 0.000207959708 9.3428533 18.6281988 9.3428533 18.6281988 16.6405747"></polygon>
            <path d="M6.06486762,15.0224663 C5.98896232,15.0224663 5.91271043,15.0035806 5.84269733,14.9616886 C5.63751042,14.8401332 5.56992351,14.5760763 5.69261974,14.3727972 L6.99375431,12.2266913 C7.11645054,12.0234122 7.38298557,11.9561103 7.58817248,12.0780091 C7.79335939,12.2012814 7.8588667,12.463278 7.73617047,12.6665572 L6.43746209,14.812663 C6.35462481,14.9489837 6.21321221,15.0224663 6.06486762,15.0224663" id="Fill-17" fill="#FF6200"></path>
            <path d="M12.1317109,15.0224663 C11.9840595,15.0224663 11.8398741,14.9489837 11.7598096,14.8147233 L10.4583284,12.6689608 C10.3359788,12.4653383 10.4035657,12.2012814 10.6087526,12.0800693 C10.8142861,11.9585139 11.0804745,12.0234122 11.2035174,12.2266913 L12.5022257,14.3727972 C12.6245754,14.5760763 12.5590681,14.8401332 12.3538811,14.9616886 C12.2845612,15.0035806 12.2058831,15.0224663 12.1317109,15.0224663" id="Fill-18" fill="#FF6200"></path>
            <polygon id="Fill-4" fill="#EAEAEA" points="13.4309391 0.064932579 13.4309391 5.15137516 18.5626915 5.15137516"></polygon>
            <path d="M4.76608992,12.0168193 L13.4310778,12.0168193 L13.4310778,6.86788213 L4.76608992,6.86788213 L4.76608992,12.0168193 Z M3.89855133,12.8762918 L14.2958436,12.8762918 L14.2958436,6.00840966 L3.89855133,6.00840966 L3.89855133,12.8762918 Z" id="Fill-15" fill="#FF6200"></path>
            <path d="M9.0986185,6.86791647 C8.85911824,6.86791647 8.66467591,6.67493863 8.66467591,6.43835192 L8.66467591,5.15137516 C8.66467591,4.91238481 8.85911824,4.72181061 9.0986185,4.72181061 C9.33742557,4.72181061 9.5322145,4.91238481 9.5322145,5.15137516 L9.5322145,6.43835192 C9.5322145,6.67493863 9.33742557,6.86791647 9.0986185,6.86791647" id="Fill-19" fill="#FF6200"></path>
            <polygon id="Fill-20" fill="#FFF7F3" points="4.76608992 12.0175061 13.4310778 12.0175061 13.4310778 6.86788213 4.76608992 6.86788213"></polygon>
            <path d="M17.9954468,23.9383647 L0.63462371,23.9383647 C0.282825203,23.9383647 0,23.657139 0,23.3092982 L0,16.6405747 L18.6279909,16.6405747 L18.6279909,23.3092982 C18.6279909,23.657139 18.3448191,23.9383647 17.9954468,23.9383647" id="Fill-6" fill="#FF6200"></path>
            <path d="M4.79960609,18.8601289 L4.79960609,20.5722063 L5.45086658,20.5722063 C5.53820966,20.5722063 5.62485953,20.5577845 5.70942982,20.528254 C5.7940001,20.499067 5.87233159,20.4509942 5.94442429,20.3836923 C6.01374419,20.3191375 6.07093311,20.2247088 6.11529785,20.1069305 C6.15758299,19.9881221 6.18115175,19.8387531 6.18115175,19.6626008 C6.18115175,19.593582 6.17075377,19.5118583 6.1513442,19.4198333 C6.13020163,19.3274649 6.08999608,19.2395604 6.02864797,19.1557764 C5.96764645,19.0716491 5.88272957,19.0009134 5.77285753,18.9439128 C5.66055928,18.887599 5.51498749,18.8601289 5.33302274,18.8601289 L4.79960609,18.8601289 Z M4.79960609,22.64895 L4.08907709,22.64895 L4.08907709,18.3258344 L5.34550033,18.3258344 C5.52954467,18.3258344 5.71358901,18.3553648 5.89555375,18.4137389 C6.0775185,18.4724563 6.24007367,18.5603608 6.38425907,18.6777957 C6.52809787,18.7952306 6.6445553,18.9360152 6.73363138,19.1032397 C6.82201426,19.2690908 6.86672559,19.4552011 6.86672559,19.6626008 C6.86672559,19.8827054 6.83033264,20.0798038 6.75442735,20.257673 C6.68025505,20.4358856 6.5748888,20.5873149 6.44144799,20.7085269 C6.30627418,20.8280221 6.1451054,20.9224508 5.95482227,20.9897526 C5.76627214,21.0567111 5.55727263,21.0900187 5.32643735,21.0900187 L4.79960609,21.0900187 L4.79960609,22.64895 Z" id="Fill-9" fill="#FFFFFF"></path>
            <path d="M8.38306381,18.8601289 L8.38306381,20.5722063 L9.03709709,20.5722063 C9.12166737,20.5722063 9.20831725,20.5577845 9.29288753,20.528254 C9.37953741,20.499067 9.4557893,20.4509942 9.527882,20.3836923 C9.5999747,20.3191375 9.65681702,20.2247088 9.69875556,20.1069305 C9.7434669,19.9881221 9.76460947,19.8387531 9.76460947,19.6626008 C9.76460947,19.593582 9.75421148,19.5118583 9.73514851,19.4198333 C9.71400594,19.3274649 9.6734538,19.2395604 9.61453188,19.1557764 C9.55110417,19.0716491 9.46618729,19.0009134 9.35631524,18.9439128 C9.244017,18.887599 9.0984452,18.8601289 8.91648046,18.8601289 L8.38306381,18.8601289 Z M8.38306381,22.64895 L7.6725348,22.64895 L7.6725348,18.3258344 L8.92895804,18.3258344 C9.11508198,18.3258344 9.29704672,18.3553648 9.47901147,18.4137389 C9.66097621,18.4724563 9.82422459,18.5603608 9.96737019,18.6777957 C10.1115556,18.7952306 10.2304392,18.9360152 10.3188221,19.1032397 C10.4078982,19.2690908 10.4522629,19.4552011 10.4522629,19.6626008 C10.4522629,19.8827054 10.4137904,20.0798038 10.3378851,20.257673 C10.2637128,20.4358856 10.1583465,20.5873149 10.0249057,20.7085269 C9.88973189,20.8280221 9.72856312,20.9224508 9.53827999,20.9897526 C9.35042305,21.0567111 9.14073034,21.0900187 8.91197466,21.0900187 L8.38306381,21.0900187 L8.38306381,22.64895 Z" id="Fill-11" fill="#FFFFFF"></path>
            <polygon id="Fill-13" fill="#FFFFFF" points="14.3422532 18.3257657 14.3422532 18.8054633 13.0390391 18.8054633 13.0390391 22.6488813 12.3222713 22.6488813 12.3222713 18.8054633 11.0194037 18.8054633 11.0194037 18.3257657"></polygon>
        </g>
    </g>
</svg>