<?xml version="1.0" encoding="UTF-8"?>
<svg width="24px" height="24px" viewBox="0 0 24 24" version="1.1" xmlns="http://www.w3.org/2000/svg" xmlns:xlink="http://www.w3.org/1999/xlink">
    <!-- Generator: Sketch 52.1 (67048) - http://www.bohemiancoding.com/sketch -->
    <title>Icons/ic_pdf</title>
    <desc>Created with Sketch.</desc>
    <g id="Icons/ic_pdf" stroke="none" stroke-width="1" fill="none" fill-rule="evenodd">
        <path d="M4.02874277,0.404225889 C3.84880481,0.404225889 3.72177957,0.559169145 3.72177957,0.908055182 L3.72177957,23.4961677 C3.72177957,23.4808833 3.88283387,23.6070951 4.02874277,23.6070951 L21.0339363,23.6070951 C21.1778138,23.6070951 21.338523,23.4808201 21.338523,23.4961677 L21.338523,5.61266356 C21.338523,5.41776422 21.3284736,5.3797326 21.3228302,5.3740731 L16.3857005,0.422155062 C16.374124,0.410601366 16.3587448,0.404225889 16.3430708,0.404225889 L4.02874277,0.404225889 Z" id="Fill-1" stroke="#EBEBEB" stroke-width="0.629999995" fill="#FFFFFF"></path>
        <polygon id="Fill-4" fill="#EAEAEA" points="16.5626931 0.153574638 16.5626931 5.1972907 21.5893236 5.1972907"></polygon>
        <path d="M12.4182522,3.79649679 C12.3768333,3.81079651 11.854683,4.54450841 12.4596712,5.16586536 C12.8616386,4.26634478 12.4369247,3.79002787 12.4182522,3.79649679 M12.6755929,7.39764332 C12.3727593,8.45139661 11.9728288,9.58754353 11.5420039,10.6164425 C12.4287767,10.2718873 13.3922765,9.96989085 14.2977218,9.75845925 C13.7260045,9.09113891 13.1519108,8.25766943 12.6755929,7.39764332 M15.8455003,10.1990269 C16.1917898,10.4669764 16.2766647,10.6021428 16.5027714,10.6021428 C16.6019053,10.6021428 16.8857269,10.5977167 17.0160948,10.4128417 C17.0782232,10.3232982 17.1033462,10.2674612 17.1138707,10.236138 C17.0619272,10.2089005 16.9913113,10.1530635 16.6141273,10.1530635 C16.4009216,10.1530635 16.1313589,10.163618 15.8455003,10.1990269 M10.0580513,12.0899948 C9.15260594,12.6010396 8.78187242,13.0208386 8.75708895,13.2578054 C8.75063846,13.2969594 8.74045348,13.3991003 8.93940022,13.5529925 C9.00152864,13.5322239 9.37022516,13.3636914 10.0580513,12.0899948 M8.92887573,14.2717237 C8.78187242,14.2717237 8.6409801,14.2237175 8.51876026,14.1321312 C8.07741083,13.7998329 8.01697991,13.430083 8.04617687,13.178476 C8.12324327,12.4849395 8.97674517,11.7597393 10.5866521,11.0219418 C11.2245718,9.6192072 11.8319365,7.88996231 12.1921455,6.44569043 C11.7701476,5.52097511 11.3573161,4.32218179 11.6581127,3.61979309 C11.7636971,3.37261219 11.8940649,3.18331111 12.1388441,3.10227935 C12.2362805,3.06925381 12.4803806,3.02941887 12.5693295,3.02941887 C12.7852512,3.02941887 12.971297,3.30622062 13.1060783,3.4764554 C13.2310142,3.63647609 13.5144963,3.97524331 12.9465135,6.3711276 C13.5185703,7.5556212 14.3309927,8.76292626 15.1060702,9.58754353 C15.663189,9.48812642 16.1418834,9.43603458 16.5312894,9.43603458 C17.1967085,9.43603458 17.598676,9.59162917 17.7619753,9.91201102 C17.8991331,10.1758749 17.8431157,10.4853618 17.598676,10.8302574 C17.3606868,11.1628962 17.0347673,11.3375571 16.6558857,11.3375571 C16.1398464,11.3375571 15.5389322,11.0110468 14.8674021,10.3648355 C13.6635366,10.6184854 12.2590269,11.0675647 11.1213639,11.5660121 C10.7669264,12.3204927 10.4267478,12.9295927 10.1103342,13.3762888 C9.67679327,13.9870912 9.29960925,14.2717237 8.92887573,14.2717237" id="Fill-6" fill="#FF1F00"></path>
        <polygon id="Clip-9" points="3.40684747 16.686436 3.40684747 23.9220951 12.5301683 23.9220951 21.653489 23.9220951 21.653489 16.686436 3.40684747 16.686436"></polygon>
        <path d="M21.0339023,23.9220951 L4.02870882,23.9220951 C3.68411676,23.9220951 3.40674562,23.6432505 3.40674562,23.2986953 L3.40674562,16.686436 L21.653489,16.686436 L21.653489,23.2986953 C21.653489,23.6432505 21.3761179,23.9220951 21.0339023,23.9220951" id="Fill-8" fill="#FF1F00"></path>
        <path d="M8.0254674,18.8870269 L8.0254674,20.5846082 L8.66372658,20.5846082 C8.74860147,20.5846082 8.83347636,20.569968 8.91665375,20.5406876 C8.99949164,20.5120882 9.07621854,20.4640819 9.14649495,20.3976904 C9.21473436,20.3333416 9.27109129,20.2397125 9.31454723,20.1232719 C9.35596618,20.005129 9.37871265,19.8573652 9.37871265,19.6827043 C9.37871265,19.6142699 9.36818816,19.5332382 9.34951569,19.4416519 C9.32880622,19.350406 9.28976377,19.2629053 9.22967234,19.1801712 C9.16924142,19.0964157 9.08640353,19.026279 8.97674517,18.9701015 C8.86878431,18.9142645 8.725855,18.8870269 8.54761773,18.8870269 L8.0254674,18.8870269 Z M8.0254674,22.6437681 L7.3294933,22.6437681 L7.3294933,18.3572563 L8.56017921,18.3572563 C8.74045348,18.3572563 8.92106724,18.3865367 9.09862551,18.4444165 C9.27686278,18.5022963 9.43642758,18.5894566 9.57765939,18.7062376 C9.71821221,18.8226782 9.83228406,18.9619303 9.91919595,19.1280794 C10.0061078,19.2921857 10.0495638,19.4767202 10.0495638,19.6827043 C10.0495638,19.9009453 10.0145953,20.0960344 9.93990543,20.2727381 C9.86793152,20.4494418 9.76370515,20.5992484 9.63333732,20.7194341 C9.50059299,20.838258 9.3430652,20.9318871 9.15701944,20.9982787 C8.97233168,21.0646703 8.76557644,21.0980363 8.54184623,21.0980363 L8.0254674,21.0980363 L8.0254674,22.6437681 Z" id="Fill-11" fill="#FFFFFF"></path>
        <path d="M12.2548171,22.1331318 C12.727061,22.1331318 13.0669001,21.9809419 13.2760318,21.6796264 C13.485503,21.3766085 13.5890504,20.9377432 13.5890504,20.3643925 C13.5890504,20.1856459 13.5683409,20.0089422 13.526922,19.8346218 C13.483466,19.6599609 13.4006282,19.5019831 13.2804453,19.3610287 C13.1582255,19.2193933 12.9922102,19.1049956 12.7830784,19.0178354 C12.5736072,18.9306751 12.3043841,18.887095 11.9709955,18.887095 L11.5646145,18.887095 L11.5646145,22.1331318 L12.2548171,22.1331318 Z M14.3203325,20.3810755 C14.3203325,20.7344829 14.283327,21.035458 14.2086371,21.2874054 C14.1322497,21.5362887 14.0368503,21.7463584 13.920402,21.9142099 C13.8046326,22.0830828 13.6739253,22.2162064 13.528959,22.3132402 C13.3843322,22.4112955 13.2431004,22.4841559 13.108319,22.5321621 C12.9735377,22.5794874 12.8492809,22.6108106 12.7375855,22.6251103 C12.6255507,22.6377077 12.5430523,22.6438362 12.4866953,22.6438362 L10.8683009,22.6438362 L10.8683009,18.3573244 L12.1570413,18.3573244 C12.5158923,18.3573244 12.8329849,18.4131614 13.1039055,18.5275592 C13.3778817,18.6416165 13.6039884,18.7955087 13.7835837,18.9848098 C13.9641974,19.1737704 14.0986392,19.3916709 14.1879276,19.6327234 C14.2768765,19.8758186 14.3203325,20.1253828 14.3203325,20.3810755 L14.3203325,20.3810755 Z" id="Fill-13" fill="#FFFFFF"></path>
        <polygon id="Fill-15" fill="#FFFFFF" points="16.0380305 18.8870269 16.0380305 20.2352864 17.8248167 20.2352864 17.8248167 20.7136461 16.0380305 20.7136461 16.0380305 22.6437681 15.3298344 22.6437681 15.3298344 18.3572563 18.0050909 18.3572563 18.0050909 18.8870269"></polygon>
    </g>
</svg>