<?xml version="1.0" encoding="UTF-8"?>
<svg width="24px" height="24px" viewBox="0 0 24 24" version="1.1" xmlns="http://www.w3.org/2000/svg" xmlns:xlink="http://www.w3.org/1999/xlink">
    <!-- Generator: Sketch 52.1 (67048) - http://www.bohemiancoding.com/sketch -->
    <title>Icons/ic_xls</title>
    <desc>Created with Sketch.</desc>
    <g id="Icons/ic_xls" stroke="none" stroke-width="1" fill="none" fill-rule="evenodd">
        <path d="M7.02484683,18.259175 L7.79955808,18.259175 L7.79955808,22.6123143 L7.02484683,22.6123143 L7.02484683,18.259175 Z M8.70953636,18.259175 L9.89004873,18.259175 L11.0521156,21.3088319 L12.2264795,18.259175 L13.3946948,18.259175 L13.3946948,22.6123143 L12.6568746,22.6123143 L12.6568746,18.9969952 L12.6445776,18.9969952 L11.3226497,22.6123143 L10.7815815,22.6123143 L9.4596536,18.9969952 L9.44735659,18.9969952 L9.44735659,22.6123143 L8.70953636,22.6123143 L8.70953636,18.259175 Z M18.1905263,22.2925922 C17.6535545,22.5795238 17.0530568,22.7229874 16.3890153,22.7229874 C16.0528955,22.7229874 15.7444487,22.6686761 15.4636657,22.5600521 C15.1828827,22.451428 14.9410441,22.297717 14.7381425,22.0989144 C14.5352409,21.9001119 14.3764062,21.6613474 14.2616336,21.382614 C14.146861,21.1038805 14.0894756,20.794409 14.0894756,20.4541902 C14.0894756,20.1057733 14.146861,19.7891286 14.2616336,19.5042466 C14.3764062,19.2193646 14.5352409,18.9765012 14.7381425,18.7756491 C14.9410441,18.5747971 15.1828827,18.4200613 15.4636657,18.3114372 C15.7444487,18.2028132 16.0528955,18.1485019 16.3890153,18.1485019 C16.721036,18.1485019 17.032557,18.1884668 17.3235876,18.2683977 C17.6146181,18.3483286 17.8749021,18.4907675 18.1044473,18.6957186 L17.5326366,19.2736778 C17.3932699,19.1384101 17.2241878,19.0338866 17.0253852,18.9601042 C16.8265827,18.8863218 16.616511,18.8494312 16.3951638,18.8494312 C16.1697176,18.8494312 15.9657943,18.889396 15.7833878,18.9693269 C15.6009814,19.0492579 15.4441961,19.1599298 15.3130274,19.301346 C15.1818587,19.4427623 15.0804095,19.6077455 15.0086766,19.7963005 C14.9369437,19.9848555 14.9010778,20.187754 14.9010778,20.4050021 C14.9010778,20.6386464 14.9369437,20.8538418 15.0086766,21.0505948 C15.0804095,21.2473479 15.1818587,21.4174547 15.3130274,21.5609205 C15.4441961,21.7043863 15.6009814,21.8171077 15.7833878,21.8990881 C15.9657943,21.9810685 16.1697176,22.0220582 16.3951638,22.0220582 C16.5919168,22.0220582 16.7773948,22.0036128 16.9516032,21.9667216 C17.1258116,21.9298304 17.2805474,21.872445 17.4158151,21.7945636 L17.4158151,20.7677638 L16.5242823,20.7677638 L16.5242823,20.0668345 L18.1905263,20.0668345 L18.1905263,22.2925922 Z" id="IMG" fill="#FFFFFF"></path>
        <g id="Group-9" transform="translate(3.107687, 0.000000)">
            <path d="M12.7548088,1.0000685 L0.999897542,1.0000685 L0.999897542,22.9752735 L17.3556151,22.9752735 L17.3556151,5.61434084 L12.7548088,1.0000685 Z" id="Fill-1" stroke="#EBEBEB" stroke-width="2" fill="#FFFFFF"></path>
            <polygon id="Clip-7" points="18.3555809 16.5982189 0.000204916282 16.5982189 0.000204916282 9.31907262 18.3555809 9.31907262 18.3555809 16.5982189"></polygon>
            <polygon id="Fill-4" fill="#EAEAEA" points="13.2343815 0.0647673039 13.2343815 5.13826319 18.2910323 5.13826319"></polygon>
            <path d="M17.732089,23.8774336 L0.625336188,23.8774336 C0.278686144,23.8774336 0,23.5969237 0,23.2499683 L0,16.5982189 L18.355376,16.5982189 L18.355376,23.2499683 C18.355376,23.5969237 18.0763483,23.8774336 17.732089,23.8774336" id="Fill-6" fill="#008E3F"></path>
            <path d="M7.6084391,9.22092533 L14.9079669,9.22092533 L14.9079669,8.45156715 L7.6084391,8.45156715 L7.6084391,9.22092533 Z M7.60813173,10.7574901 L14.9076595,10.7574901 L14.9076595,9.99059089 L7.60813173,9.99059089 L7.60813173,10.7574901 Z M7.60813173,12.2937474 L14.9076595,12.2937474 L14.9076595,11.5268483 L7.60813173,11.5268483 L7.60813173,12.2937474 Z M7.60813173,13.8324638 L14.9076595,13.8324638 L14.9076595,13.0631056 L7.60813173,13.0631056 L7.60813173,13.8324638 Z M3.76595144,13.8324638 L6.83877355,13.8324638 L6.83877355,13.0631056 L3.76595144,13.0631056 L3.76595144,13.8324638 Z M3.76625881,12.2937474 L6.83908092,12.2937474 L6.83908092,11.5268483 L3.76625881,11.5268483 L3.76625881,12.2937474 Z M3.76625881,10.7574901 L6.83908092,10.7574901 L6.83908092,9.99059089 L3.76625881,9.99059089 L3.76625881,10.7574901 Z M3.76625881,9.22092533 L6.83908092,9.22092533 L6.83908092,8.45156715 L3.76625881,8.45156715 L3.76625881,9.22092533 Z M3.76625881,7.68466796 L6.83908092,7.68466796 L6.83908092,6.91530978 L3.76625881,6.91530978 L3.76625881,7.68466796 Z M7.6084391,7.68466796 L7.6084391,6.14841059 L2.99690063,6.14841059 L2.99690063,14.599363 L15.6748661,14.599363 L15.6748661,7.68466796 L7.6084391,7.68466796 Z" id="Fill-15" fill="#008E3F"></path>
            <g id="Group-2" transform="translate(4.917991, 18.135091)" fill="#FFFFFF">
                <polygon id="Fill-9" points="1.95078252 2.19164111 2.93345855 4.07123571 2.20375167 4.07123571 1.58869545 2.61182195 1.53582704 2.61182195 0.873435162 4.07123571 0.144035655 4.07123571 1.12701906 2.19164111 0.0819460213 0.201391722 0.800587423 0.201391722 1.48326602 1.77699302 1.53582704 1.77699302 2.27690678 0.201391722 2.99739243 0.201391722"></polygon>
                <polygon id="Fill-11" points="4.50958238 0.201360985 4.50958238 3.59508199 6.28989504 3.59508199 6.28989504 4.07120498 3.86809196 4.07120498 3.86809196 0.201360985"></polygon>
                <path d="M9.12062906,3.01137796 C9.12062906,3.1503112 9.09265798,3.2874002 9.03456422,3.41864908 C8.9758557,3.55020533 8.8953236,3.66454861 8.79050892,3.76598217 C8.68538687,3.86526411 8.55567487,3.94395197 8.40198765,4.00388998 C8.24860782,4.06413536 8.0721749,4.09210644 7.87668476,4.09210644 C7.79277155,4.09210644 7.70609196,4.08841794 7.61572388,4.07888934 C7.52627792,4.07120498 7.43775409,4.056451 7.34615651,4.03585692 C7.25425156,4.01311121 7.16787934,3.98514014 7.08519562,3.94794783 C7.00466352,3.91198503 6.93335266,3.86710836 6.87341465,3.81423996 L6.98376206,3.36239956 C7.03294197,3.39037063 7.09441686,3.41864908 7.16972359,3.44508328 C7.24472295,3.46967323 7.3234108,3.49549268 7.40425027,3.51793101 C7.48293813,3.54067672 7.56347023,3.55942656 7.6443097,3.57233629 C7.7248418,3.58770501 7.79984116,3.59293037 7.8714594,3.59293037 C8.08508462,3.59293037 8.24860782,3.54436521 8.36264373,3.44508328 C8.47545014,3.34364972 8.53169966,3.19518787 8.53169966,3.00031249 C8.53169966,2.88228071 8.49235573,2.7790029 8.41151626,2.69631918 C8.33098416,2.61179121 8.22985798,2.53494761 8.10967458,2.46763261 C7.98949118,2.39785861 7.85793492,2.33023624 7.71715744,2.26292124 C7.57853157,2.19345462 7.44728269,2.11292252 7.32525505,2.02101757 C7.20138316,1.92757575 7.10025697,1.81845783 7.0194175,1.69243431 C6.93857802,1.56733292 6.8992341,1.40934247 6.8992341,1.21999982 C6.8992341,1.04909964 6.93150841,0.895412433 6.99359805,0.762319308 C7.05691718,0.630763054 7.14144514,0.516419769 7.24841144,0.424514816 C7.35507037,0.330458243 7.47894226,0.261298997 7.62187137,0.210582218 C7.76234148,0.162017059 7.91264757,0.137427105 8.07033065,0.137427105 C8.23170222,0.137427105 8.39491804,0.152488451 8.55967073,0.182611145 C8.72288655,0.212426464 8.85597968,0.261298997 8.95741324,0.327077124 C8.93651178,0.37195379 8.91253657,0.42267057 8.88425812,0.477075843 C8.85597968,0.531173741 8.83016023,0.582197896 8.80557027,0.628918808 C8.78098032,0.675947095 8.76038623,0.715291021 8.74348064,0.747257961 C8.7247308,0.779224901 8.71581694,0.79582312 8.71182107,0.799818987 C8.69122699,0.789983006 8.66663703,0.775229033 8.64051021,0.75832344 C8.61438338,0.7395736 8.57626895,0.722975381 8.52801117,0.706069788 C8.47913863,0.687319948 8.41366788,0.675947095 8.33282841,0.668570109 C8.25229631,0.660885748 8.1490185,0.662729994 8.02330236,0.674102848 C7.9519915,0.681479834 7.88621337,0.700229674 7.82227949,0.734040861 C7.76049723,0.768159422 7.70424771,0.808732846 7.65537518,0.857912753 C7.60496577,0.906785287 7.56746609,0.96119056 7.53888027,1.02297282 C7.51121657,1.08506245 7.4976921,1.14315622 7.4976921,1.19909836 C7.4976921,1.3380316 7.53703603,1.45237489 7.6178755,1.5387471 C7.69871497,1.62327507 7.79799691,1.69827443 7.91787294,1.76405255 C8.03621209,1.82952331 8.1659241,1.89130557 8.30670158,1.9533952 C8.44532745,2.01333321 8.57626895,2.08894732 8.6982966,2.17654903 C8.81848,2.26292124 8.91776194,2.37357604 8.99860141,2.50513229 C9.08128513,2.63638117 9.12062906,2.8054371 9.12062906,3.01137796" id="Fill-13"></path>
            </g>
        </g>
    </g>
</svg>