<?xml version="1.0" standalone="no"?>
<!DOCTYPE svg PUBLIC "-//W3C//DTD SVG 20010904//EN"
 "http://www.w3.org/TR/2001/REC-SVG-20010904/DTD/svg10.dtd">
<svg version="1.0" xmlns="http://www.w3.org/2000/svg"
 width="600.000000pt" height="600.000000pt" viewBox="0 0 600.000000 600.000000"
 preserveAspectRatio="xMidYMid meet">
<metadata>
Created by potrace 1.11, written by Peter Selinger 2001-2013
</metadata>
<g transform="translate(0.000000,600.000000) scale(0.100000,-0.100000)"
fill="#000000" stroke="none">
<path d="M2910 5493 c-417 -63 -728 -268 -940 -619 -76 -125 -165 -199 -275
-226 -81 -20 -162 -15 -280 16 -110 30 -292 41 -402 24 -216 -32 -424 -134
-581 -283 -174 -164 -284 -368 -327 -605 -14 -73 -14 -276 0 -355 84 -498 494
-873 985 -902 117 -6 152 -19 181 -66 16 -27 18 -42 13 -92 -15 -131 -6 -206
36 -317 55 -146 194 -276 355 -332 69 -24 215 -32 290 -15 140 30 170 14 191
-103 28 -147 106 -255 233 -322 99 -51 150 -62 346 -72 113 -6 272 11 571 61
12 2 48 7 80 10 33 4 67 9 77 11 10 2 45 6 78 9 33 4 70 8 82 11 12 2 65 6
117 10 81 5 100 3 129 -14 42 -22 71 -74 71 -123 0 -63 -33 -97 -162 -164
-229 -119 -335 -240 -345 -395 -7 -108 32 -151 136 -151 51 -1 68 4 95 25 18
14 40 40 49 58 60 127 171 197 322 204 81 4 130 11 200 29 284 74 505 326 559
640 13 74 56 182 95 239 90 130 217 215 386 260 93 24 188 67 262 117 41 28
138 121 179 170 69 84 141 237 171 363 25 102 24 370 0 486 -77 359 -310 660
-632 815 -149 72 -295 106 -475 111 -155 5 -204 16 -277 63 -124 80 -172 164
-203 350 -58 354 -241 650 -528 855 -138 99 -323 175 -508 209 -66 12 -297 19
-354 10z"/>
</g>
</svg>
